<svg height="512pt" viewBox="0 -3 512 511" width="512pt" xmlns="http://www.w3.org/2000/svg"><path d="m512 252.582031c0-96.648437-53.5-184.042969-139.613281-228.070312l-19.421875 37.992187c71.777344 36.695313 116.367187 109.53125 116.367187 190.078125 0 80.550781-44.59375 153.390625-116.378906 190.082031-16.292969 8.328126-14.710937 32.914063 2.519531 39.078126l64 22.921874 14.386719-40.167968-22.753906-8.152344c63.136719-47.898438 100.894531-122.5625 100.894531-203.761719zm0 0"/><path d="m42.667969 252.582031c0-80.550781 44.59375-153.390625 116.378906-190.082031 16.292969-8.328125 14.710937-32.910156-2.519531-39.078125l-64-22.921875-14.386719 40.167969 22.753906 8.152343c-63.136719 47.902344-100.894531 122.5625-100.894531 203.761719 0 96.652344 53.5 184.046875 139.613281 228.070313l19.421875-37.988282c-71.777344-36.699218-116.367187-109.53125-116.367187-190.082031zm0 0"/><path d="m362.667969 249.914062h-106.667969l64-192-192 192h85.332031l-42.664062 170.667969zm0 0"/></svg>